<svg width="16" height="16" viewBox="0 0 16 16" fill="none" xmlns="http://www.w3.org/2000/svg">
<path fill-rule="evenodd" clip-rule="evenodd" d="M5.33331 8.99992C5.33331 8.63173 5.63179 8.33325 5.99998 8.33325H9.99998C10.3682 8.33325 10.6666 8.63173 10.6666 8.99992C10.6666 9.36811 10.3682 9.66659 9.99998 9.66659H5.99998C5.63179 9.66659 5.33331 9.36811 5.33331 8.99992Z" fill="#424551"/>
<path fill-rule="evenodd" clip-rule="evenodd" d="M5.33331 11.4999C5.33331 11.1317 5.63179 10.8333 5.99998 10.8333H7.99998C8.36817 10.8333 8.66665 11.1317 8.66665 11.4999C8.66665 11.8681 8.36817 12.1666 7.99998 12.1666H5.99998C5.63179 12.1666 5.33331 11.8681 5.33331 11.4999Z" fill="#424551"/>
<path fill-rule="evenodd" clip-rule="evenodd" d="M6.02859 1.02851C6.15362 0.90349 6.32318 0.833252 6.5 0.833252H11C12.4728 0.833252 13.6667 2.02716 13.6667 3.49992L13.6667 12.4999C13.6667 13.9727 12.4728 15.1666 11 15.1666H4.99998C3.52722 15.1666 2.33331 13.9727 2.33331 12.4999L2.33333 4.99992C2.33333 4.82311 2.40357 4.65354 2.52859 4.52851L6.02859 1.02851ZM6.33331 2.60942V4.83325H4.10947L6.33331 2.60942ZM3.66666 6.16659L3.66665 12.4999C3.66664 13.2363 4.2636 13.8333 4.99998 13.8333H11C11.7364 13.8333 12.3333 13.2363 12.3333 12.4999L12.3333 3.49992C12.3333 2.76354 11.7364 2.16659 11 2.16659H7.66664V5.49992C7.66664 5.86811 7.36816 6.16659 6.99997 6.16659H3.66666Z" fill="#424551"/>
</svg>
