<svg width="16" height="16" viewBox="0 0 16 16" fill="none" xmlns="http://www.w3.org/2000/svg">
<path fill-rule="evenodd" clip-rule="evenodd" d="M10.7118 6.94076C11.41 7.47441 11.4101 8.5258 10.7118 9.05946L7.65853 11.3931C6.78113 12.0637 5.51554 11.438 5.51553 10.3337V5.66648C5.51553 4.56217 6.78113 3.93654 7.65853 4.60713L10.7118 6.94076ZM9.90216 8.00011L6.84887 5.66648L6.84887 10.3337L9.90216 8.00011Z" fill="#424551"/>
<path fill-rule="evenodd" clip-rule="evenodd" d="M7.99996 2.00008C4.68625 2.00008 1.99996 4.68637 1.99996 8.00008C1.99996 11.3138 4.68625 14.0001 7.99996 14.0001C11.3137 14.0001 14 11.3138 14 8.00008C14 4.68637 11.3137 2.00008 7.99996 2.00008ZM0.666626 8.00008C0.666626 3.94999 3.94987 0.666748 7.99996 0.666748C12.05 0.666748 15.3333 3.94999 15.3333 8.00008C15.3333 12.0502 12.05 15.3334 7.99996 15.3334C3.94987 15.3334 0.666626 12.0502 0.666626 8.00008Z" fill="#424551"/>
</svg>
