<svg width="130" height="20" viewBox="0 0 130 20" fill="none" xmlns="http://www.w3.org/2000/svg">
<path d="M0 10.0993C0 3.99932 3.3 0.299316 8.7 0.299316C12.8 0.299316 16.1 2.79932 16.7 6.49932C16.8 6.89932 16.5 7.19932 16.1 7.19932H13.5C13.2 7.19932 13 6.99932 12.9 6.69932C12.4 4.79932 10.8 3.59932 8.7 3.59932C5.8 3.59932 4 6.09932 4 10.0993C4 14.0993 5.8 16.5993 8.8 16.5993C10.9 16.5993 12.4 15.4993 13 13.6993C13.1 13.3993 13.3 13.1993 13.6 13.1993H16.2C16.6 13.1993 16.9 13.5993 16.8 13.8993C16.2 17.4993 13 19.8993 8.8 19.8993C3.3 19.8993 0 16.0993 0 10.0993Z" fill="white"/>
<path d="M24.2997 19.3996H21.3997C21.0997 19.3996 20.8997 19.1996 20.8997 18.8996V1.59957C20.8997 1.19957 21.2997 0.799573 21.6997 0.799573H28.6997C32.7997 0.799573 35.2997 3.09957 35.2997 6.69957C35.2997 8.79957 34.2997 10.6996 32.5997 11.6996C32.1997 11.8996 32.0997 12.3996 32.2997 12.6996L35.3997 18.5996C35.5997 18.8996 35.2997 19.2996 34.9997 19.2996H31.6997C31.4997 19.2996 31.2997 19.1996 31.1997 18.9996L28.2997 12.9996C28.1997 12.6996 27.8997 12.5996 27.5997 12.5996H25.2997C24.9997 12.5996 24.7997 12.7996 24.7997 13.0996V18.9996C24.8997 19.1996 24.5997 19.3996 24.2997 19.3996ZM24.8997 9.19957C24.8997 9.49957 25.0997 9.69957 25.3997 9.69957H28.3997C30.3997 9.69957 31.4997 8.59957 31.4997 6.79957C31.4997 4.99957 30.2997 3.89957 28.3997 3.89957H25.4997C25.1997 3.89957 24.9997 4.09957 24.9997 4.39957V9.19957H24.8997Z" fill="white"/>
<path d="M51.4998 19.3996H40.4998C40.0998 19.3996 39.7998 19.0996 39.7998 18.6996V1.49957C39.7998 1.09957 40.0998 0.799573 40.4998 0.799573H51.4998C51.8998 0.799573 52.1998 1.09957 52.1998 1.49957V3.39957C52.1998 3.79957 51.8998 4.09957 51.4998 4.09957H44.1998C43.8998 4.09957 43.6998 4.29957 43.6998 4.59957V7.99957C43.6998 8.29957 43.8998 8.49957 44.1998 8.49957H50.9998C51.3998 8.49957 51.6998 8.79957 51.6998 9.19957V10.8996C51.6998 11.2996 51.3998 11.5996 50.9998 11.5996H44.1998C43.8998 11.5996 43.6998 11.7996 43.6998 12.0996V15.8996C43.6998 16.1996 43.8998 16.3996 44.1998 16.3996H51.4998C51.8998 16.3996 52.1998 16.6996 52.1998 17.0996V18.9996C52.1998 19.0996 51.8998 19.3996 51.4998 19.3996Z" fill="white"/>
<path d="M66.9999 14.8996H61.2999C60.9999 14.8996 60.7999 15.0996 60.6999 15.2996L59.5999 18.9996C59.4999 19.2996 59.2999 19.3996 58.9999 19.3996H56.3999C55.9999 19.3996 55.6999 18.9996 55.7999 18.5996L61.7999 1.19957C61.8999 0.999573 62.0999 0.799573 62.3999 0.799573H66.0999C66.3999 0.799573 66.5999 0.999573 66.6999 1.19957L72.6999 18.5996C72.7999 18.9996 72.4999 19.3996 72.0999 19.3996H69.1999C68.8999 19.3996 68.6999 19.1996 68.5999 18.9996L67.4999 15.2996C67.4999 15.0996 67.1999 14.8996 66.9999 14.8996ZM62.0999 11.9996H66.1999C66.3999 11.9996 66.4999 11.7996 66.4999 11.5996L64.2999 4.59957H64.0999L61.8999 11.5996C61.7999 11.7996 61.8999 11.9996 62.0999 11.9996Z" fill="white"/>
<path d="M79.0001 18.7V4.49996C79.0001 4.19996 78.8001 3.99996 78.5001 3.99996H74.1001C73.7001 3.99996 73.3001 3.69996 73.3001 3.19996V1.49996C73.3001 1.09996 73.6001 0.699963 74.1001 0.699963H87.7001C88.1001 0.699963 88.5001 0.999963 88.5001 1.49996V3.19996C88.5001 3.59996 88.2001 3.99996 87.7001 3.99996H83.3001C83.0001 3.99996 82.8001 4.19996 82.8001 4.49996V18.8C82.8001 19.2 82.5001 19.5 82.1001 19.5H79.6001C79.3001 19.4 79.0001 19.1 79.0001 18.7Z" fill="white"/>
<path d="M103.8 19.3996H92.7999C92.3999 19.3996 92.0999 19.0996 92.0999 18.6996V1.49957C92.0999 1.09957 92.3999 0.799573 92.7999 0.799573H103.8C104.2 0.799573 104.5 1.09957 104.5 1.49957V3.39957C104.5 3.79957 104.2 4.09957 103.8 4.09957H96.4999C96.1999 4.09957 95.9999 4.29957 95.9999 4.59957V7.99957C95.9999 8.29957 96.1999 8.49957 96.4999 8.49957H103.3C103.7 8.49957 104 8.79957 104 9.19957V10.8996C104 11.2996 103.7 11.5996 103.3 11.5996H96.4999C96.1999 11.5996 95.9999 11.7996 95.9999 12.0996V15.8996C95.9999 16.1996 96.1999 16.3996 96.4999 16.3996H103.8C104.2 16.3996 104.5 16.6996 104.5 17.0996V18.9996C104.5 19.0996 104.2 19.3996 103.8 19.3996Z" fill="white"/>
<path d="M117.7 8.7L111.5 0.6C111.1 0.2 110.6 0 110.1 0C109.6 0 109.1 0.2 108.7 0.6C108 1.4 108 2.6 108.7 3.4L113.6 10L108.7 16.6C108 17.4 108 18.6 108.7 19.4C109.1 19.8 109.6 20 110.1 20C110.6 20 111.1 19.8 111.5 19.4L117.7 11.3C118.4 10.7 118.4 9.5 117.7 8.7Z" fill="#FF3F3A"/>
<path d="M120.343 8.7L126.543 0.6C126.943 0.2 127.443 0 127.943 0C128.443 0 128.943 0.2 129.343 0.6C130.043 1.4 130.043 2.6 129.343 3.4L124.443 10L129.343 16.6C130.043 17.4 130.043 18.6 129.343 19.4C128.943 19.8 128.443 20 127.943 20C127.443 20 126.943 19.8 126.543 19.4L120.343 11.3C119.643 10.7 119.643 9.5 120.343 8.7Z" fill="#FF3F3A"/>
</svg>
